# xmcd
#
# Track frame offsets:
#	187
#	18282
#	28087
#	54160
#	65002
#	81982
#	93835
#	109710
#	122725
#	135527
#	147292
#	164942
#	178865
#	193762
#	211075
#	226130
#	238117
#	250892
#	263230
#	276780
#	289690
#
# Disc length: 4054 seconds
#
# Revision: 1
# Processed by: cddbd v1.5.1PL0 Copyright (c) Steve Scherf et al.
# Submitted via: CDex 1.50Beta5
#
DISCID=330fd415
DTITLE=さまざまなアーティスト - FOLK and POPS (11)
DYEAR=1900
DGENRE=Folk
TTITLE0=五つの赤い風船/遠い世界に
TTITLE1=五つの赤い風船/もしもボクの背中に羽が生えてたら
TTITLE2=五つの赤い風船/遠い空の彼方から
TTITLE3=五つの赤い風船/恋は風に乗って
TTITLE4=高石友也/受験生ブルース
TTITLE5=高石友也/思い出の赤いヤッケ
TTITLE6=高石友也/友よ
TTITLE7=荒木一郎/空に星があるように
TTITLE8=荒木一郎/今夜は踊ろう
TTITLE9=ソルティシュガー/走れコウタロー
TTITLE10=マイペース/東京
TTITLE11=中山千夏/あなたの心に
TTITLE12=アン真理子/悲しみは駆け足でやってくる
TTITLE13=佐良直美/世界は二人のために
TTITLE14=チェリッシュ/なのにあなたは京都に行くの
TTITLE15=チェリッシュ/てんとう虫のサンバ
TTITLE16=チェリッシュ/若草の髪かざり
TTITLE17=ザ・ダイナマイツ/トンネル天国
TTITLE18=オックス/ガールフレンド
TTITLE19=オックス/スワンの涙
TTITLE20=ザ・モップス/朝まで待てない
EXTD=
EXTT0=
EXTT1=
EXTT2=
EXTT3=
EXTT4=
EXTT5=
EXTT6=
EXTT7=
EXTT8=
EXTT9=
EXTT10=
EXTT11=
EXTT12=
EXTT13=
EXTT14=
EXTT15=
EXTT16=
EXTT17=
EXTT18=
EXTT19=
EXTT20=
PLAYORDER=
